<?xml version="1.0" encoding="UTF-8" standalone="no"?>
<!DOCTYPE svg PUBLIC "-//W3C//DTD SVG 1.1//EN" "http://www.w3.org/Graphics/SVG/1.1/DTD/svg11.dtd">
<svg width="100%" height="100%" viewBox="0 0 702 339" version="1.1" xmlns="http://www.w3.org/2000/svg" xmlns:xlink="http://www.w3.org/1999/xlink" xml:space="preserve" xmlns:serif="http://www.serif.com/" style="fill-rule:evenodd;clip-rule:evenodd;stroke-linejoin:round;stroke-miterlimit:1.5;">
    <g transform="matrix(1,0,0,1,-74.3191,-93.4952)">
        <g transform="matrix(1,0,0,1,-215.471,-89.8282)">
            <rect x="778.423" y="225.986" width="150.981" height="171.834" style="fill:rgb(255,53,156);fill-opacity:0.4;"/>
        </g>
        <g transform="matrix(1,0,0,1,-153.192,-132.491)">
            <rect x="778.423" y="225.986" width="150.981" height="171.834" style="fill:rgb(255,53,156);fill-opacity:0.4;"/>
        </g>
        <g transform="matrix(0.589149,0,0,0.746037,228.655,-74.7136)">
            <rect x="778.423" y="225.986" width="150.981" height="171.834" style="fill:rgb(255,53,156);fill-opacity:0.4;"/>
        </g>
        <g transform="matrix(0.178297,0,0,0.5,610.501,-19.1128)">
            <rect x="778.423" y="225.986" width="150.981" height="171.834" style="fill:rgb(255,53,156);fill-opacity:0.4;"/>
        </g>
        <g transform="matrix(1,0,0,1,20.0282,-173.671)">
            <path d="M458.826,267.166L225.23,426.218L225.23,449.571L248.582,449.571L515.933,267.166L458.826,267.166Z" style="fill:rgb(255,53,156);fill-opacity:0.7;"/>
        </g>
        <g transform="matrix(1,0,0,1,-249.022,-47.9356)">
            <rect x="750.273" y="225.986" width="150.981" height="171.834" style="fill:rgb(255,53,156);"/>
            <path d="M901.254,225.986L750.273,225.986L750.273,397.82L901.254,397.82L901.254,225.986ZM900.254,226.986L900.254,396.82C900.254,396.82 751.273,396.82 751.273,396.82C751.273,396.82 751.273,226.986 751.273,226.986L900.254,226.986Z"/>
        </g>
        <g transform="matrix(3.21438,0,0,6.42877,-1106.64,-1792.59)">
            <rect x="397.483" y="306.534" width="26.729" height="26.729" style="fill:rgb(255,156,0);"/>
        </g>
        <g transform="matrix(3.21438,0,0,6.42877,-1020.73,-1792.59)">
            <rect x="397.483" y="306.534" width="26.729" height="26.729" style="fill:rgb(94,143,255);"/>
        </g>
        <g transform="matrix(1.93614,0,0,3.87228,-564.399,-974.769)">
            <rect x="397.483" y="306.534" width="26.729" height="26.729" style="fill:rgb(255,182,0);"/>
        </g>
        <g transform="matrix(0.390089,0,0,6.42877,325.344,-1792.59)">
            <rect x="397.483" y="306.534" width="26.729" height="26.729" style="fill:rgb(255,182,0);"/>
        </g>
        <g transform="matrix(0.390089,0,0,6.42877,335.771,-1792.59)">
            <rect x="397.483" y="306.534" width="26.729" height="26.729" style="fill:rgb(255,225,0);"/>
        </g>
        <g transform="matrix(1.08947,0,0,2.17895,-205.233,-433.075)">
            <rect x="397.483" y="306.534" width="26.729" height="26.729" style="fill:rgb(255,225,0);"/>
        </g>
        <g transform="matrix(0.873684,0,0,0.873684,-102.016,-15.523)">
            <rect x="397.483" y="306.534" width="26.729" height="26.729" style="fill:rgb(255,53,156);"/>
        </g>
        <g transform="matrix(0.390089,0,0,0.178577,335.771,123.31)">
            <rect x="397.483" y="306.534" width="26.729" height="26.729" style="fill:rgb(94,143,255);"/>
        </g>
        <g transform="matrix(0.390089,0,0,0.178577,335.771,161.496)">
            <rect x="397.483" y="306.534" width="26.729" height="26.729" style="fill:rgb(94,143,255);"/>
        </g>
        <g transform="matrix(0.390089,0,0,0.178577,335.771,199.681)">
            <rect x="397.483" y="306.534" width="26.729" height="26.729" style="fill:rgb(94,143,255);"/>
        </g>
        <g transform="matrix(0.390089,0,0,0.178577,335.771,237.866)">
            <rect x="397.483" y="306.534" width="26.729" height="26.729" style="fill:rgb(94,143,255);"/>
        </g>
        <g transform="matrix(0.390089,0,0,0.178577,335.771,132.857)">
            <rect x="397.483" y="306.534" width="26.729" height="26.729" style="fill:rgb(94,143,255);"/>
        </g>
        <g transform="matrix(0.390089,0,0,0.178577,335.771,171.042)">
            <rect x="397.483" y="306.534" width="26.729" height="26.729" style="fill:rgb(94,143,255);"/>
        </g>
        <g transform="matrix(0.390089,0,0,0.178577,335.771,209.227)">
            <rect x="397.483" y="306.534" width="26.729" height="26.729" style="fill:rgb(94,143,255);"/>
        </g>
        <g transform="matrix(0.390089,0,0,0.178577,335.771,247.413)">
            <rect x="397.483" y="306.534" width="26.729" height="26.729" style="fill:rgb(94,143,255);"/>
        </g>
        <g transform="matrix(0.390089,0,0,0.178577,335.771,276.052)">
            <rect x="397.483" y="306.534" width="26.729" height="26.729" style="fill:rgb(94,143,255);"/>
        </g>
        <g transform="matrix(0.390089,0,0,0.178577,335.771,142.403)">
            <rect x="397.483" y="306.534" width="26.729" height="26.729" style="fill:rgb(94,143,255);"/>
        </g>
        <g transform="matrix(0.390089,0,0,0.178577,335.771,180.588)">
            <rect x="397.483" y="306.534" width="26.729" height="26.729" style="fill:rgb(94,143,255);"/>
        </g>
        <g transform="matrix(0.390089,0,0,0.178577,335.771,218.774)">
            <rect x="397.483" y="306.534" width="26.729" height="26.729" style="fill:rgb(94,143,255);"/>
        </g>
        <g transform="matrix(0.390089,0,0,0.178577,335.771,256.959)">
            <rect x="397.483" y="306.534" width="26.729" height="26.729" style="fill:rgb(94,143,255);"/>
        </g>
        <g transform="matrix(0.390089,0,0,0.178577,335.771,285.598)">
            <rect x="397.483" y="306.534" width="26.729" height="26.729" style="fill:rgb(94,143,255);"/>
        </g>
        <g transform="matrix(0.390089,0,0,0.178577,335.771,151.949)">
            <rect x="397.483" y="306.534" width="26.729" height="26.729" style="fill:rgb(94,143,255);"/>
        </g>
        <g transform="matrix(0.390089,0,0,0.178577,335.771,190.135)">
            <rect x="397.483" y="306.534" width="26.729" height="26.729" style="fill:rgb(94,143,255);"/>
        </g>
        <g transform="matrix(0.390089,0,0,0.178577,335.771,228.32)">
            <rect x="397.483" y="306.534" width="26.729" height="26.729" style="fill:rgb(94,143,255);"/>
        </g>
        <g transform="matrix(0.390089,0,0,0.178577,335.771,266.505)">
            <rect x="397.483" y="306.534" width="26.729" height="26.729" style="fill:rgb(94,143,255);"/>
        </g>
        <g transform="matrix(1,0,0,1,-150.911,-57.5374)">
            <path d="M396.169,309.828L225.23,426.218L225.23,465.471L419.521,333.181L419.521,309.828L396.169,309.828Z" style="fill:rgb(255,53,156);fill-opacity:0.7;"/>
        </g>
        <g transform="matrix(1,0,0,1,-9.15865,-275.904)">
            <path d="M510.409,616.242L661.39,616.242" style="fill:none;stroke:black;stroke-width:1px;"/>
        </g>
        <g transform="matrix(1,0,0,1,-9.15865,-314.09)">
            <path d="M510.409,616.242L661.39,616.242" style="fill:none;stroke:black;stroke-width:1px;"/>
        </g>
        <g transform="matrix(1,0,0,1,-9.15865,-352.147)">
            <path d="M510.409,616.242L661.39,616.242" style="fill:none;stroke:black;stroke-width:1px;"/>
        </g>
        <g transform="matrix(1,0,0,1,-9.15865,-390.46)">
            <path d="M510.409,616.242L661.39,616.242" style="fill:none;stroke:black;stroke-width:1px;"/>
        </g>
        <g transform="matrix(1,0,0,1,-9.15865,-294.997)">
            <path d="M510.409,616.242L661.39,616.242" style="fill:none;stroke:black;stroke-width:1px;"/>
        </g>
        <g transform="matrix(1,0,0,1,-9.15865,-333.182)">
            <path d="M510.409,616.242L661.39,616.242" style="fill:none;stroke:black;stroke-width:1px;"/>
        </g>
        <g transform="matrix(1,0,0,1,-9.15865,-371.24)">
            <path d="M510.409,616.242L661.39,616.242" style="fill:none;stroke:black;stroke-width:1px;"/>
        </g>
        <g transform="matrix(1,0,0,1,-9.15865,-409.553)">
            <path d="M510.409,616.242L661.39,616.242" style="fill:none;stroke:black;stroke-width:1px;"/>
        </g>
        <g transform="matrix(1,0,0,1,-9.15865,-285.451)">
            <path d="M510.409,616.242L661.39,616.242" style="fill:none;stroke:black;stroke-width:1px;"/>
        </g>
        <g transform="matrix(1,0,0,1,-9.15865,-323.636)">
            <path d="M510.409,616.242L661.39,616.242" style="fill:none;stroke:black;stroke-width:1px;"/>
        </g>
        <g transform="matrix(1,0,0,1,-9.15865,-361.693)">
            <path d="M510.409,616.242L661.39,616.242" style="fill:none;stroke:black;stroke-width:1px;"/>
        </g>
        <g transform="matrix(1,0,0,1,-9.15865,-400.007)">
            <path d="M510.409,616.242L661.39,616.242" style="fill:none;stroke:black;stroke-width:1px;"/>
        </g>
        <g transform="matrix(1,0,0,1,-9.15865,-304.543)">
            <path d="M510.409,616.242L661.39,616.242" style="fill:none;stroke:black;stroke-width:1px;"/>
        </g>
        <g transform="matrix(1,0,0,1,-9.15865,-342.729)">
            <path d="M510.409,616.242L661.39,616.242" style="fill:none;stroke:black;stroke-width:1px;"/>
        </g>
        <g transform="matrix(1,0,0,1,-9.15865,-380.786)">
            <path d="M510.409,616.242L661.39,616.242" style="fill:none;stroke:black;stroke-width:1px;"/>
        </g>
        <g transform="matrix(1,0,0,1,-9.15865,-419.099)">
            <path d="M510.409,616.242L661.39,616.242" style="fill:none;stroke:black;stroke-width:1px;"/>
        </g>
        <g transform="matrix(1,0,0,1,-9.15865,-428.646)">
            <path d="M510.409,616.242L661.39,616.242" style="fill:none;stroke:black;stroke-width:1px;"/>
        </g>
        <g transform="matrix(1,0,0,1,-9.15865,-275.904)">
            <path d="M518.797,453.955L518.797,625.789" style="fill:none;stroke:black;stroke-width:1px;"/>
        </g>
        <g transform="matrix(1,0,0,1,-0.770835,-275.904)">
            <path d="M518.797,453.955L518.797,625.789" style="fill:none;stroke:black;stroke-width:1px;"/>
        </g>
        <g transform="matrix(1,0,0,1,7.61699,-275.904)">
            <path d="M518.797,453.955L518.797,625.789" style="fill:none;stroke:black;stroke-width:1px;"/>
        </g>
        <g transform="matrix(1,0,0,1,16.0048,-275.904)">
            <path d="M518.797,453.955L518.797,625.789" style="fill:none;stroke:black;stroke-width:1px;"/>
        </g>
        <g transform="matrix(1,0,0,1,24.3926,-275.904)">
            <path d="M518.797,453.955L518.797,625.789" style="fill:none;stroke:black;stroke-width:1px;"/>
        </g>
        <g transform="matrix(1,0,0,1,32.7804,-275.904)">
            <path d="M518.797,453.955L518.797,625.789" style="fill:none;stroke:black;stroke-width:1px;"/>
        </g>
        <g transform="matrix(1,0,0,1,41.1683,-275.904)">
            <path d="M518.797,453.955L518.797,625.789" style="fill:none;stroke:black;stroke-width:1px;"/>
        </g>
        <g transform="matrix(1,0,0,1,49.5561,-275.904)">
            <path d="M518.797,453.955L518.797,625.789" style="fill:none;stroke:black;stroke-width:1px;"/>
        </g>
        <g transform="matrix(1,0,0,1,57.9439,-275.904)">
            <path d="M518.797,453.955L518.797,625.789" style="fill:none;stroke:black;stroke-width:1px;"/>
        </g>
        <g transform="matrix(1,0,0,1,66.3317,-275.904)">
            <path d="M518.797,453.955L518.797,625.789" style="fill:none;stroke:black;stroke-width:1px;"/>
        </g>
        <g transform="matrix(1,0,0,1,74.7195,-275.904)">
            <path d="M518.797,453.955L518.797,625.789" style="fill:none;stroke:black;stroke-width:1px;"/>
        </g>
        <g transform="matrix(1,0,0,1,83.1074,-275.904)">
            <path d="M518.797,453.955L518.797,625.789" style="fill:none;stroke:black;stroke-width:1px;"/>
        </g>
        <g transform="matrix(1,0,0,1,91.4952,-275.904)">
            <path d="M518.797,453.955L518.797,625.789" style="fill:none;stroke:black;stroke-width:1px;"/>
        </g>
        <g transform="matrix(1,0,0,1,99.883,-275.904)">
            <path d="M518.797,453.955L518.797,625.789" style="fill:none;stroke:black;stroke-width:1px;"/>
        </g>
        <g transform="matrix(1,0,0,1,108.271,-275.904)">
            <path d="M518.797,453.955L518.797,625.789" style="fill:none;stroke:black;stroke-width:1px;"/>
        </g>
        <g transform="matrix(1,0,0,1,116.659,-275.904)">
            <path d="M518.797,453.955L518.797,625.789" style="fill:none;stroke:black;stroke-width:1px;"/>
        </g>
        <g transform="matrix(1,0,0,1,125.046,-275.904)">
            <path d="M518.797,453.955L518.797,625.789" style="fill:none;stroke:black;stroke-width:1px;"/>
        </g>
        <g transform="matrix(1,0,0,1,-311.053,-5.78645)">
            <rect x="750.273" y="225.986" width="150.981" height="171.834" style="fill:rgb(255,53,156);fill-opacity:0.4;"/>
        </g>
        <g transform="matrix(1,0,0,0.98412,-373.083,40.0797)">
            <rect x="750.273" y="225.986" width="150.981" height="171.834" style="fill:rgb(255,53,156);fill-opacity:0.4;"/>
        </g>
        <g transform="matrix(1,0,0,0.738083,-435.114,137.958)">
            <rect x="750.273" y="225.986" width="150.981" height="171.834" style="fill:rgb(255,53,156);fill-opacity:0.4;"/>
        </g>
        <g transform="matrix(1,0,0,0.492046,-497.145,235.836)">
            <rect x="750.273" y="225.986" width="150.981" height="171.834" style="fill:rgb(255,53,156);fill-opacity:0.4;"/>
        </g>
        <g transform="matrix(1,0,0,0.246037,-559.175,333.704)">
            <rect x="750.273" y="225.986" width="150.981" height="171.834" style="fill:rgb(255,53,156);fill-opacity:0.4;"/>
        </g>
    </g>
</svg>
