<?xml version="1.0" encoding="UTF-8" standalone="no"?>
<!DOCTYPE svg PUBLIC "-//W3C//DTD SVG 1.1//EN"
 "http://www.w3.org/Graphics/SVG/1.1/DTD/svg11.dtd">
<!-- Generated by graphviz version 2.43.0 (0)
 -->
<!-- Title: %3 Pages: 1 -->
<svg width="972pt" height="225pt"
 viewBox="0.00 0.00 972.24 224.74" xmlns="http://www.w3.org/2000/svg" xmlns:xlink="http://www.w3.org/1999/xlink">
<g id="graph0" class="graph" transform="scale(1 1) rotate(0) translate(4 220.74)">
<title>%3</title>
<polygon fill="white" stroke="transparent" points="-4,4 -4,-220.74 968.24,-220.74 968.24,4 -4,4"/>
<!-- 0 -->
<g id="node1" class="node">
<title>0</title>
<ellipse fill="#ffe0b0" stroke="black" cx="713.99" cy="-189.87" rx="118.17" ry="26.74"/>
<text text-anchor="middle" x="713.99" y="-193.67" font-family="Times,serif" font-size="14.00">DEFINE_GLOBAL 0</text>
<text text-anchor="middle" x="713.99" y="-178.67" font-family="Times,serif" font-size="14.00">PtrDType(dtypes.int)</text>
</g>
<!-- 8 -->
<g id="node9" class="node">
<title>8</title>
<ellipse fill="#c0ffc0" stroke="black" cx="916.16" cy="-117.87" rx="48.17" ry="26.74"/>
<text text-anchor="middle" x="916.16" y="-121.67" font-family="Times,serif" font-size="14.00">STORE</text>
<text text-anchor="middle" x="916.16" y="-106.67" font-family="Times,serif" font-size="14.00">None</text>
</g>
<!-- 0&#45;&gt;8 -->
<g id="edge1" class="edge">
<title>0&#45;&gt;8</title>
<path fill="none" stroke="black" d="M787.86,-168.83C802.6,-164.2 817.91,-159.1 832.08,-153.87 844.18,-149.4 857.06,-144.1 868.98,-138.96"/>
<polygon fill="black" stroke="black" points="870.53,-142.1 878.29,-134.89 867.73,-135.68 870.53,-142.1"/>
</g>
<!-- 1 -->
<g id="node2" class="node">
<title>1</title>
<ellipse fill="#ffe0b0" stroke="black" cx="279.95" cy="-134.87" rx="118.17" ry="26.74"/>
<text text-anchor="middle" x="279.95" y="-138.67" font-family="Times,serif" font-size="14.00">DEFINE_GLOBAL 1</text>
<text text-anchor="middle" x="279.95" y="-123.67" font-family="Times,serif" font-size="14.00">PtrDType(dtypes.int)</text>
</g>
<!-- 6 -->
<g id="node7" class="node">
<title>6</title>
<ellipse fill="#ffc0c0" stroke="black" cx="496.97" cy="-117.87" rx="62.87" ry="26.74"/>
<text text-anchor="middle" x="496.97" y="-121.67" font-family="Times,serif" font-size="14.00">LOAD</text>
<text text-anchor="middle" x="496.97" y="-106.67" font-family="Times,serif" font-size="14.00">dtypes.int</text>
</g>
<!-- 1&#45;&gt;6 -->
<g id="edge2" class="edge">
<title>1&#45;&gt;6</title>
<path fill="none" stroke="black" d="M391.61,-126.12C402.92,-125.23 414.18,-124.34 424.89,-123.49"/>
<polygon fill="black" stroke="black" points="425.29,-126.97 434.98,-122.69 424.73,-119.99 425.29,-126.97"/>
</g>
<!-- 2 -->
<g id="node3" class="node">
<title>2</title>
<ellipse fill="#e0e0e0" stroke="black" cx="62.93" cy="-98.87" rx="62.87" ry="26.74"/>
<text text-anchor="middle" x="62.93" y="-102.67" font-family="Times,serif" font-size="14.00">CONST 0</text>
<text text-anchor="middle" x="62.93" y="-87.67" font-family="Times,serif" font-size="14.00">dtypes.int</text>
</g>
<!-- 5 -->
<g id="node6" class="node">
<title>5</title>
<ellipse fill="#c8a0e0" stroke="black" cx="279.95" cy="-62.87" rx="99.9" ry="26.74"/>
<text text-anchor="middle" x="279.95" y="-66.67" font-family="Times,serif" font-size="14.00">RANGE (0, False)</text>
<text text-anchor="middle" x="279.95" y="-51.67" font-family="Times,serif" font-size="14.00">dtypes.int</text>
</g>
<!-- 2&#45;&gt;5 -->
<g id="edge3" class="edge">
<title>2&#45;&gt;5</title>
<path fill="none" stroke="black" d="M121.84,-89.18C141.16,-85.94 163.23,-82.24 184.6,-78.67"/>
<polygon fill="black" stroke="black" points="185.4,-82.08 194.68,-76.98 184.24,-75.18 185.4,-82.08"/>
</g>
<!-- 3 -->
<g id="node4" class="node">
<title>3</title>
<ellipse fill="#e0e0e0" stroke="black" cx="496.97" cy="-189.87" rx="62.87" ry="26.74"/>
<text text-anchor="middle" x="496.97" y="-193.67" font-family="Times,serif" font-size="14.00">CONST 2</text>
<text text-anchor="middle" x="496.97" y="-178.67" font-family="Times,serif" font-size="14.00">dtypes.int</text>
</g>
<!-- 7 -->
<g id="node8" class="node">
<title>7</title>
<ellipse fill="#ffffc0" stroke="black" cx="713.99" cy="-117.87" rx="115.02" ry="26.74"/>
<text text-anchor="middle" x="713.99" y="-121.67" font-family="Times,serif" font-size="14.00">ALU BinaryOps.ADD</text>
<text text-anchor="middle" x="713.99" y="-106.67" font-family="Times,serif" font-size="14.00">dtypes.int</text>
</g>
<!-- 3&#45;&gt;7 -->
<g id="edge4" class="edge">
<title>3&#45;&gt;7</title>
<path fill="none" stroke="black" d="M544.61,-172.14C560.79,-166.15 579.08,-159.54 595.9,-153.87 607.67,-149.9 620.16,-145.87 632.43,-142.01"/>
<polygon fill="black" stroke="black" points="633.71,-145.28 642.21,-138.96 631.62,-138.6 633.71,-145.28"/>
</g>
<!-- 4 -->
<g id="node5" class="node">
<title>4</title>
<ellipse fill="#e0e0e0" stroke="black" cx="62.93" cy="-26.87" rx="62.87" ry="26.74"/>
<text text-anchor="middle" x="62.93" y="-30.67" font-family="Times,serif" font-size="14.00">CONST 3</text>
<text text-anchor="middle" x="62.93" y="-15.67" font-family="Times,serif" font-size="14.00">dtypes.int</text>
</g>
<!-- 4&#45;&gt;5 -->
<g id="edge5" class="edge">
<title>4&#45;&gt;5</title>
<path fill="none" stroke="black" d="M121.84,-36.56C141.16,-39.8 163.23,-43.5 184.6,-47.07"/>
<polygon fill="black" stroke="black" points="184.24,-50.56 194.68,-48.76 185.4,-43.66 184.24,-50.56"/>
</g>
<!-- 5&#45;&gt;6 -->
<g id="edge6" class="edge">
<title>5&#45;&gt;6</title>
<path fill="none" stroke="black" d="M352.85,-81.26C378.72,-87.88 407.68,-95.29 432.76,-101.7"/>
<polygon fill="black" stroke="black" points="431.96,-105.11 442.52,-104.2 433.7,-98.33 431.96,-105.11"/>
</g>
<!-- 5&#45;&gt;8 -->
<g id="edge7" class="edge">
<title>5&#45;&gt;8</title>
<path fill="none" stroke="black" d="M375.93,-55.53C486.86,-49.38 675.17,-46.51 832.08,-81.87 845.28,-84.84 858.99,-89.89 871.38,-95.27"/>
<polygon fill="black" stroke="black" points="870.01,-98.5 880.57,-99.43 872.9,-92.12 870.01,-98.5"/>
</g>
<!-- 6&#45;&gt;7 -->
<g id="edge8" class="edge">
<title>6&#45;&gt;7</title>
<path fill="none" stroke="black" d="M560.16,-117.87C569.18,-117.87 578.73,-117.87 588.46,-117.87"/>
<polygon fill="black" stroke="black" points="588.66,-121.37 598.66,-117.87 588.66,-114.37 588.66,-121.37"/>
</g>
<!-- 7&#45;&gt;8 -->
<g id="edge9" class="edge">
<title>7&#45;&gt;8</title>
<path fill="none" stroke="black" d="M829.4,-117.87C839.09,-117.87 848.6,-117.87 857.56,-117.87"/>
<polygon fill="black" stroke="black" points="857.79,-121.37 867.79,-117.87 857.79,-114.37 857.79,-121.37"/>
</g>
</g>
</svg>
