<?xml version="1.0" encoding="UTF-8" standalone="no"?>
<!DOCTYPE svg PUBLIC "-//W3C//DTD SVG 1.1//EN"
 "http://www.w3.org/Graphics/SVG/1.1/DTD/svg11.dtd">
<!-- Generated by graphviz version 2.43.0 (0)
 -->
<!-- Title: %3 Pages: 1 -->
<svg width="198pt" height="609pt"
 viewBox="0.00 0.00 197.50 608.57" xmlns="http://www.w3.org/2000/svg" xmlns:xlink="http://www.w3.org/1999/xlink">
<g id="graph0" class="graph" transform="scale(1 1) rotate(0) translate(4 604.57)">
<title>%3</title>
<polygon fill="white" stroke="transparent" points="-4,4 -4,-604.57 193.5,-604.57 193.5,4 -4,4"/>
<!-- 2 -->
<g id="node1" class="node">
<title>2</title>
<ellipse fill="#f0c080" fill-opacity="0.501961" stroke="black" cx="94.75" cy="-531.27" rx="94.51" ry="69.09"/>
<text text-anchor="middle" x="94.75" y="-565.07" font-family="Times,serif" font-size="14.00">real:True</text>
<text text-anchor="middle" x="94.75" y="-550.07" font-family="Times,serif" font-size="14.00">device:NPY</text>
<text text-anchor="middle" x="94.75" y="-535.07" font-family="Times,serif" font-size="14.00">size:3</text>
<text text-anchor="middle" x="94.75" y="-520.07" font-family="Times,serif" font-size="14.00">dtype:dtypes.int</text>
<text text-anchor="middle" x="94.75" y="-505.07" font-family="Times,serif" font-size="14.00">offset:0</text>
<text text-anchor="middle" x="94.75" y="-490.07" font-family="Times,serif" font-size="14.00">b:0</text>
</g>
<!-- 1 -->
<g id="node2" class="node">
<title>1</title>
<ellipse fill="#ffffa0" stroke="black" stroke-width="2" cx="94.75" cy="-367.28" rx="89.19" ry="58.88"/>
<text text-anchor="middle" x="94.75" y="-393.58" font-family="Times,serif" font-size="14.00">(3,)</text>
<text text-anchor="middle" x="94.75" y="-378.58" font-family="Times,serif" font-size="14.00">int</text>
<text text-anchor="middle" x="94.75" y="-363.58" font-family="Times,serif" font-size="14.00">MetaOps.COPY</text>
<text text-anchor="middle" x="94.75" y="-348.58" font-family="Times,serif" font-size="14.00">None</text>
<text text-anchor="middle" x="94.75" y="-333.58" font-family="Times,serif" font-size="14.00">K:1</text>
</g>
<!-- 2&#45;&gt;1 -->
<g id="edge1" class="edge">
<title>2&#45;&gt;1</title>
<path fill="none" stroke="#a0a0a0" d="M94.75,-461.57C94.75,-453.17 94.75,-444.59 94.75,-436.21"/>
<polygon fill="#a0a0a0" stroke="#a0a0a0" points="98.25,-436.1 94.75,-426.1 91.25,-436.1 98.25,-436.1"/>
</g>
<!-- 0 -->
<g id="node3" class="node">
<title>0</title>
<ellipse fill="#c0c0c0" stroke="black" stroke-width="2" cx="94.75" cy="-203.3" rx="90.52" ry="69.09"/>
<text text-anchor="middle" x="94.75" y="-237.1" font-family="Times,serif" font-size="14.00">(3,)</text>
<text text-anchor="middle" x="94.75" y="-222.1" font-family="Times,serif" font-size="14.00">int</text>
<text text-anchor="middle" x="94.75" y="-207.1" font-family="Times,serif" font-size="14.00">BinaryOps.ADD</text>
<text text-anchor="middle" x="94.75" y="-192.1" font-family="Times,serif" font-size="14.00">CONST1 2</text>
<text text-anchor="middle" x="94.75" y="-177.1" font-family="Times,serif" font-size="14.00">__add__</text>
<text text-anchor="middle" x="94.75" y="-162.1" font-family="Times,serif" font-size="14.00">K:2</text>
</g>
<!-- 1&#45;&gt;0 -->
<g id="edge2" class="edge">
<title>1&#45;&gt;0</title>
<path fill="none" stroke="#a0a0a0" d="M94.75,-308.26C94.75,-299.97 94.75,-291.34 94.75,-282.74"/>
<polygon fill="#a0a0a0" stroke="#a0a0a0" points="98.25,-282.69 94.75,-272.69 91.25,-282.69 98.25,-282.69"/>
</g>
<!-- 4 -->
<g id="node4" class="node">
<title>4</title>
<polygon fill="#ffffa0" stroke="black" stroke-width="2" points="157.75,-98 31.75,-98 31.75,0 157.75,0 157.75,-98"/>
<text text-anchor="middle" x="94.75" y="-82.8" font-family="Times,serif" font-size="14.00">(3,)</text>
<text text-anchor="middle" x="94.75" y="-67.8" font-family="Times,serif" font-size="14.00">int</text>
<text text-anchor="middle" x="94.75" y="-52.8" font-family="Times,serif" font-size="14.00">MetaOps.COPY</text>
<text text-anchor="middle" x="94.75" y="-37.8" font-family="Times,serif" font-size="14.00">CLANG</text>
<text text-anchor="middle" x="94.75" y="-22.8" font-family="Times,serif" font-size="14.00">tolist</text>
<text text-anchor="middle" x="94.75" y="-7.8" font-family="Times,serif" font-size="14.00">K:3</text>
</g>
<!-- 0&#45;&gt;4 -->
<g id="edge3" class="edge">
<title>0&#45;&gt;4</title>
<path fill="none" stroke="#a0a0a0" d="M94.75,-133.72C94.75,-125.19 94.75,-116.53 94.75,-108.18"/>
<polygon fill="#a0a0a0" stroke="#a0a0a0" points="98.25,-108.17 94.75,-98.17 91.25,-108.17 98.25,-108.17"/>
</g>
</g>
</svg>
