<?xml version="1.0" encoding="UTF-8" standalone="no"?>
<!DOCTYPE svg PUBLIC "-//W3C//DTD SVG 1.1//EN"
 "http://www.w3.org/Graphics/SVG/1.1/DTD/svg11.dtd">
<!-- Generated by graphviz version 2.43.0 (0)
 -->
<!-- Title: %3 Pages: 1 -->
<svg width="198pt" height="470pt"
 viewBox="0.00 0.00 197.50 470.19" xmlns="http://www.w3.org/2000/svg" xmlns:xlink="http://www.w3.org/1999/xlink">
<g id="graph0" class="graph" transform="scale(1 1) rotate(0) translate(4 466.19)">
<title>%3</title>
<polygon fill="white" stroke="transparent" points="-4,4 -4,-466.19 193.5,-466.19 193.5,4 -4,4"/>
<!-- 1 -->
<g id="node1" class="node">
<title>1</title>
<ellipse fill="#f0c080" fill-opacity="0.501961" stroke="black" cx="94.75" cy="-392.89" rx="94.51" ry="69.09"/>
<text text-anchor="middle" x="94.75" y="-426.69" font-family="Times,serif" font-size="14.00">real:True</text>
<text text-anchor="middle" x="94.75" y="-411.69" font-family="Times,serif" font-size="14.00">device:NPY</text>
<text text-anchor="middle" x="94.75" y="-396.69" font-family="Times,serif" font-size="14.00">size:3</text>
<text text-anchor="middle" x="94.75" y="-381.69" font-family="Times,serif" font-size="14.00">dtype:dtypes.int</text>
<text text-anchor="middle" x="94.75" y="-366.69" font-family="Times,serif" font-size="14.00">offset:0</text>
<text text-anchor="middle" x="94.75" y="-351.69" font-family="Times,serif" font-size="14.00">b:0</text>
</g>
<!-- 0 -->
<g id="node2" class="node">
<title>0</title>
<ellipse fill="#ffffa0" stroke="black" stroke-width="2" cx="94.75" cy="-218.3" rx="89.19" ry="69.09"/>
<text text-anchor="middle" x="94.75" y="-252.1" font-family="Times,serif" font-size="14.00">(3,)</text>
<text text-anchor="middle" x="94.75" y="-237.1" font-family="Times,serif" font-size="14.00">int</text>
<text text-anchor="middle" x="94.75" y="-222.1" font-family="Times,serif" font-size="14.00">MetaOps.COPY</text>
<text text-anchor="middle" x="94.75" y="-207.1" font-family="Times,serif" font-size="14.00">CLANG</text>
<text text-anchor="middle" x="94.75" y="-192.1" font-family="Times,serif" font-size="14.00">None</text>
<text text-anchor="middle" x="94.75" y="-177.1" font-family="Times,serif" font-size="14.00">K:1</text>
</g>
<!-- 1&#45;&gt;0 -->
<g id="edge1" class="edge">
<title>1&#45;&gt;0</title>
<path fill="none" stroke="#a0a0a0" d="M94.75,-323.18C94.75,-314.89 94.75,-306.38 94.75,-297.96"/>
<polygon fill="#a0a0a0" stroke="#a0a0a0" points="98.25,-297.77 94.75,-287.77 91.25,-297.77 98.25,-297.77"/>
</g>
<!-- 2 -->
<g id="node3" class="node">
<title>2</title>
<polygon fill="#c0c0c0" stroke="black" stroke-width="2" points="158.75,-113 30.75,-113 30.75,0 158.75,0 158.75,-113"/>
<text text-anchor="middle" x="94.75" y="-97.8" font-family="Times,serif" font-size="14.00">(3,)</text>
<text text-anchor="middle" x="94.75" y="-82.8" font-family="Times,serif" font-size="14.00">int</text>
<text text-anchor="middle" x="94.75" y="-67.8" font-family="Times,serif" font-size="14.00">BinaryOps.ADD</text>
<text text-anchor="middle" x="94.75" y="-52.8" font-family="Times,serif" font-size="14.00">CLANG</text>
<text text-anchor="middle" x="94.75" y="-37.8" font-family="Times,serif" font-size="14.00">CONST1 2</text>
<text text-anchor="middle" x="94.75" y="-22.8" font-family="Times,serif" font-size="14.00">__add__</text>
<text text-anchor="middle" x="94.75" y="-7.8" font-family="Times,serif" font-size="14.00">K:2</text>
</g>
<!-- 0&#45;&gt;2 -->
<g id="edge2" class="edge">
<title>0&#45;&gt;2</title>
<path fill="none" stroke="#a0a0a0" d="M94.75,-148.6C94.75,-140.18 94.75,-131.59 94.75,-123.22"/>
<polygon fill="#a0a0a0" stroke="#a0a0a0" points="98.25,-123.14 94.75,-113.14 91.25,-123.14 98.25,-123.14"/>
</g>
</g>
</svg>
