<?xml version="1.0" encoding="UTF-8" standalone="no"?>
<!DOCTYPE svg PUBLIC "-//W3C//DTD SVG 1.1//EN"
 "http://www.w3.org/Graphics/SVG/1.1/DTD/svg11.dtd">
<!-- Generated by graphviz version 2.43.0 (0)
 -->
<!-- Title: %3 Pages: 1 -->
<svg width="198pt" height="551pt"
 viewBox="0.00 0.00 197.50 551.14" xmlns="http://www.w3.org/2000/svg" xmlns:xlink="http://www.w3.org/1999/xlink">
<g id="graph0" class="graph" transform="scale(1 1) rotate(0) translate(4 547.14)">
<title>%3</title>
<polygon fill="white" stroke="transparent" points="-4,4 -4,-547.14 193.5,-547.14 193.5,4 -4,4"/>
<!-- 2 -->
<g id="node1" class="node">
<title>2</title>
<ellipse fill="#f0c080" fill-opacity="0.501961" stroke="black" cx="94.75" cy="-473.84" rx="94.51" ry="69.09"/>
<text text-anchor="middle" x="94.75" y="-507.64" font-family="Times,serif" font-size="14.00">real:True</text>
<text text-anchor="middle" x="94.75" y="-492.64" font-family="Times,serif" font-size="14.00">device:NPY</text>
<text text-anchor="middle" x="94.75" y="-477.64" font-family="Times,serif" font-size="14.00">size:3</text>
<text text-anchor="middle" x="94.75" y="-462.64" font-family="Times,serif" font-size="14.00">dtype:dtypes.int</text>
<text text-anchor="middle" x="94.75" y="-447.64" font-family="Times,serif" font-size="14.00">offset:0</text>
<text text-anchor="middle" x="94.75" y="-432.64" font-family="Times,serif" font-size="14.00">b:0</text>
</g>
<!-- 1 -->
<g id="node2" class="node">
<title>1</title>
<ellipse fill="#ffffa0" stroke="black" stroke-width="2" cx="94.75" cy="-320.46" rx="87.86" ry="48.17"/>
<text text-anchor="middle" x="94.75" y="-339.26" font-family="Times,serif" font-size="14.00">(3,)</text>
<text text-anchor="middle" x="94.75" y="-324.26" font-family="Times,serif" font-size="14.00">int</text>
<text text-anchor="middle" x="94.75" y="-309.26" font-family="Times,serif" font-size="14.00">LoadOps.COPY</text>
<text text-anchor="middle" x="94.75" y="-294.26" font-family="Times,serif" font-size="14.00">K:1</text>
</g>
<!-- 2&#45;&gt;1 -->
<g id="edge1" class="edge">
<title>2&#45;&gt;1</title>
<path fill="none" stroke="#a0a0a0" d="M94.75,-404.24C94.75,-395.67 94.75,-386.99 94.75,-378.62"/>
<polygon fill="#a0a0a0" stroke="#a0a0a0" points="98.25,-378.61 94.75,-368.61 91.25,-378.61 98.25,-378.61"/>
</g>
<!-- 0 -->
<g id="node3" class="node">
<title>0</title>
<ellipse fill="#c0c0c0" stroke="black" stroke-width="2" cx="94.75" cy="-177.69" rx="90.52" ry="58.88"/>
<text text-anchor="middle" x="94.75" y="-203.99" font-family="Times,serif" font-size="14.00">(3,)</text>
<text text-anchor="middle" x="94.75" y="-188.99" font-family="Times,serif" font-size="14.00">int</text>
<text text-anchor="middle" x="94.75" y="-173.99" font-family="Times,serif" font-size="14.00">BinaryOps.ADD</text>
<text text-anchor="middle" x="94.75" y="-158.99" font-family="Times,serif" font-size="14.00">CONST1 2</text>
<text text-anchor="middle" x="94.75" y="-143.99" font-family="Times,serif" font-size="14.00">K:2</text>
</g>
<!-- 1&#45;&gt;0 -->
<g id="edge2" class="edge">
<title>1&#45;&gt;0</title>
<path fill="none" stroke="#a0a0a0" d="M94.75,-272.2C94.75,-264.04 94.75,-255.43 94.75,-246.85"/>
<polygon fill="#a0a0a0" stroke="#a0a0a0" points="98.25,-246.84 94.75,-236.84 91.25,-246.84 98.25,-246.84"/>
</g>
<!-- 4 -->
<g id="node4" class="node">
<title>4</title>
<polygon fill="#ffffa0" stroke="black" stroke-width="2" points="156.75,-83 32.75,-83 32.75,0 156.75,0 156.75,-83"/>
<text text-anchor="middle" x="94.75" y="-67.8" font-family="Times,serif" font-size="14.00">(3,)</text>
<text text-anchor="middle" x="94.75" y="-52.8" font-family="Times,serif" font-size="14.00">int</text>
<text text-anchor="middle" x="94.75" y="-37.8" font-family="Times,serif" font-size="14.00">LoadOps.COPY</text>
<text text-anchor="middle" x="94.75" y="-22.8" font-family="Times,serif" font-size="14.00">CLANG</text>
<text text-anchor="middle" x="94.75" y="-7.8" font-family="Times,serif" font-size="14.00">K:3</text>
</g>
<!-- 0&#45;&gt;4 -->
<g id="edge3" class="edge">
<title>0&#45;&gt;4</title>
<path fill="none" stroke="#a0a0a0" d="M94.75,-118.61C94.75,-110.25 94.75,-101.69 94.75,-93.47"/>
<polygon fill="#a0a0a0" stroke="#a0a0a0" points="98.25,-93.29 94.75,-83.29 91.25,-93.29 98.25,-93.29"/>
</g>
</g>
</svg>
