<?xml version="1.0" encoding="UTF-8" standalone="no"?>
<!DOCTYPE svg PUBLIC "-//W3C//DTD SVG 1.1//EN" "http://www.w3.org/Graphics/SVG/1.1/DTD/svg11.dtd">
<svg width="100%" height="100%" viewBox="0 0 31 31" version="1.1" xmlns="http://www.w3.org/2000/svg" xmlns:xlink="http://www.w3.org/1999/xlink" xml:space="preserve" xmlns:serif="http://www.serif.com/" style="fill-rule:evenodd;clip-rule:evenodd;stroke-linejoin:round;stroke-miterlimit:2;">
    <g transform="matrix(1,0,0,1,-1846.28,-959.671)">
        <g transform="matrix(1,0,0,1,825.282,0)">
            <path d="M1024.44,979.263L1024.44,986.895L1032.08,986.895L1032.08,990.335L1021,990.335L1021,979.263L1024.44,979.263ZM1051.67,979.263L1051.67,990.335L1040.59,990.335L1040.59,986.895L1048.23,986.895L1048.23,979.263L1051.67,979.263ZM1021,970.743L1021,959.671L1032.08,959.671L1032.08,963.111L1024.44,963.111L1024.44,970.743L1021,970.743ZM1051.67,970.743L1048.23,970.743L1048.23,963.111L1040.59,963.111L1040.59,959.671L1051.67,959.671L1051.67,970.743Z" style="fill:rgb(128,128,128);"/>
        </g>
    </g>
</svg>
