<?xml version="1.0" encoding="UTF-8" standalone="no"?>
<!DOCTYPE svg PUBLIC "-//W3C//DTD SVG 1.1//EN" "http://www.w3.org/Graphics/SVG/1.1/DTD/svg11.dtd">
<svg width="100%" height="100%" viewBox="0 0 31 31" version="1.1" xmlns="http://www.w3.org/2000/svg" xmlns:xlink="http://www.w3.org/1999/xlink" xml:space="preserve" xmlns:serif="http://www.serif.com/" style="fill-rule:evenodd;clip-rule:evenodd;stroke-linejoin:round;stroke-miterlimit:2;">
    <g transform="matrix(1,0,0,1,-1846.28,-1004.24)">
        <g transform="matrix(1,0,0,1,825.282,44.5704)">
            <path d="M1028.63,990.335L1028.63,982.702L1021,982.702L1021,979.263L1032.08,979.263L1032.08,990.335L1028.63,990.335ZM1040.59,990.335L1040.59,979.263L1051.67,979.263L1051.67,982.702L1044.03,982.702L1044.03,990.335L1040.59,990.335ZM1032.08,959.671L1032.08,970.743L1021,970.743L1021,967.304L1028.63,967.304L1028.63,959.671L1032.08,959.671ZM1040.59,959.671L1044.03,959.671L1044.03,967.304L1051.67,967.304L1051.67,970.743L1040.59,970.743L1040.59,959.671Z" style="fill:rgb(128,128,128);"/>
        </g>
    </g>
</svg>
